<?xml version="1.0" encoding="UTF-8"?>
<!DOCTYPE svg PUBLIC "-//W3C//DTD SVG 1.1//EN" "http://www.w3.org/Graphics/SVG/1.1/DTD/svg11.dtd">
<!-- Creator: CorelDRAW 2021.5 -->
<svg xmlns="http://www.w3.org/2000/svg" xml:space="preserve" width="55.8693mm" height="68.2845mm" version="1.1" style="shape-rendering:geometricPrecision; text-rendering:geometricPrecision; image-rendering:optimizeQuality; fill-rule:evenodd; clip-rule:evenodd"
viewBox="0 0 368.49 450.37"
 xmlns:xlink="http://www.w3.org/1999/xlink"
 xmlns:xodm="http://www.corel.com/coreldraw/odm/2003">
 <defs>
  <style type="text/css">
   <![CDATA[
    .fil1 {fill:#F08519}
    .fil0 {fill:#2F318B}
   ]]>
  </style>
 </defs>
 <g id="Layer_x0020_1">
  <metadata id="CorelCorpID_0Corel-Layer"/>
  <path class="fil0" d="M46.12 234.2c-1.33,2.42 -2.59,4.81 -3.81,7.17 -19.18,24.18 -30.53,52.32 -30.12,80.11 0.32,21.37 7.56,39.78 19.88,54.11 0.27,0.31 0.53,0.61 0.8,0.92 0.22,0.25 0.44,0.49 0.66,0.74 0.45,0.49 0.89,0.97 1.35,1.45 0.23,0.25 0.47,0.5 0.71,0.74 0.3,0.31 0.6,0.61 0.91,0.91 0.22,0.21 0.43,0.43 0.65,0.64 0.36,0.35 0.73,0.7 1.1,1.05 0.38,0.35 0.76,0.71 1.14,1.05 0.28,0.25 0.57,0.5 0.85,0.76 0.29,0.26 0.59,0.51 0.88,0.76 0.38,0.33 0.76,0.65 1.15,0.97 0.37,0.31 0.74,0.61 1.12,0.92 0.33,0.26 0.66,0.52 0.99,0.78 0.27,0.21 0.54,0.42 0.82,0.63 0.3,0.23 0.6,0.46 0.91,0.69 0.5,0.37 1.02,0.74 1.53,1.11 0.33,0.23 0.67,0.46 1,0.69 0.31,0.21 0.61,0.42 0.92,0.63 0.32,0.21 0.63,0.42 0.95,0.63 0.53,0.35 1.08,0.69 1.62,1.03 0.33,0.2 0.66,0.4 0.99,0.6 0.34,0.2 0.68,0.41 1.02,0.61 0.33,0.19 0.65,0.38 0.98,0.57 0.56,0.32 1.13,0.64 1.71,0.95 0.33,0.18 0.67,0.36 1,0.54 0.37,0.2 0.74,0.39 1.11,0.58 0.33,0.17 0.65,0.34 0.98,0.5 0.6,0.3 1.21,0.6 1.82,0.89 0.33,0.16 0.66,0.31 0.99,0.46 0.4,0.18 0.8,0.37 1.21,0.55 0.32,0.14 0.64,0.29 0.96,0.42 0.65,0.28 1.3,0.55 1.95,0.82 0.3,0.12 0.61,0.24 0.92,0.36 0.47,0.19 0.93,0.37 1.4,0.55 0.3,0.11 0.61,0.23 0.91,0.35 0.68,0.25 1.36,0.5 2.05,0.74 0.31,0.11 0.62,0.21 0.93,0.31 0.48,0.16 0.97,0.32 1.45,0.48 0.32,0.1 0.65,0.21 0.97,0.31 0.7,0.22 1.4,0.43 2.11,0.63 0.3,0.09 0.6,0.17 0.89,0.25 0.54,0.15 1.09,0.3 1.63,0.45 0.3,0.08 0.59,0.16 0.89,0.23 0.75,0.19 1.5,0.38 2.26,0.56 0.26,0.06 0.53,0.12 0.79,0.18 0.59,0.13 1.18,0.26 1.78,0.39 0.28,0.06 0.57,0.12 0.85,0.18 0.79,0.16 1.58,0.32 2.38,0.46 0.26,0.05 0.52,0.09 0.77,0.14 0.62,0.11 1.24,0.21 1.86,0.31 0.29,0.05 0.58,0.09 0.88,0.14 0.81,0.13 1.64,0.24 2.46,0.35 0.24,0.03 0.49,0.06 0.74,0.09 0.63,0.08 1.27,0.16 1.91,0.23 0.31,0.03 0.61,0.07 0.92,0.1 0.83,0.09 1.67,0.17 2.52,0.24l0.68 0.05c0.72,0.06 1.43,0.11 2.15,0.15l0.75 0.05c0.9,0.05 1.81,0.1 2.72,0.13l0.43 0.01c0.8,0.03 1.6,0.05 2.41,0.06l0.74 0.01c0.92,0.01 1.84,0.01 2.76,0.01l0.48 -0.01c0.8,-0.01 1.59,-0.03 2.4,-0.05l0.84 -0.03c0.92,-0.03 1.84,-0.07 2.77,-0.12l0.44 -0.03c0.83,-0.05 1.66,-0.1 2.49,-0.16l0.79 -0.06c0.95,-0.07 1.91,-0.16 2.86,-0.25l0.37 -0.04c0.88,-0.09 1.76,-0.19 2.65,-0.29l0.76 -0.09c0.97,-0.12 1.95,-0.25 2.92,-0.38l0.34 -0.05c0.9,-0.13 1.81,-0.27 2.71,-0.41l0.75 -0.12c0.99,-0.16 1.98,-0.33 2.97,-0.52l0.29 -0.05c0.94,-0.18 1.88,-0.36 2.82,-0.55l0.77 -0.16c1.02,-0.21 2.04,-0.43 3.07,-0.67l0.35 -0.08 0.61 -0.14 0.04 -0.01 0.75 -0.18 0.48 -0.12 0.14 -0.03 0.56 -0.14 0.03 -0.01 0.54 -0.14 0.87 -0.22 0.46 -0.12 0.03 -0.01 0.64 -0.17 0.1 -0.03 0.44 -0.12 0.68 -0.18 0.14 -0.04 0.61 -0.17 0.38 -0.1c0.6,-0.17 1.2,-0.34 1.79,-0.51l0.21 -0.06 0.6 -0.17 0.3 -0.09 0.56 -0.17 0.43 -0.13c0.53,-0.16 1.06,-0.32 1.59,-0.49l0.54 -0.17 0.31 -0.1 0.63 -0.2 0.02 -0.01 0.73 -0.24 0.03 -0.01 0.77 -0.25 0.01 -0 0.06 -0.02 0.85 -0.29 0.12 -0.04c0.51,-0.17 1.01,-0.35 1.52,-0.52l0.49 -0.17 0.73 -0.26 0.03 -0.01 0.76 -0.27 0.45 -0.16 0.46 -0.17c0.45,-0.17 0.9,-0.33 1.35,-0.5l0.68 -0.26 0.07 -0.03 0.04 -0.01c0.54,-0.21 1.08,-0.42 1.62,-0.63l0.12 -0.05 0.46 -0.18 0.01 -0c12.76,-5.09 24.81,-11.76 35.37,-19.84 32.6,-24.96 51.7,-65.81 39.51,-94.58 -9.29,-21.91 -27.81,-44.42 -53.98,-60.95 -35.82,-22.62 -68.06,-49.96 -57.85,-87.81 6.59,-24.43 26.11,-45.53 51.85,-59.38 -31.01,36.74 21.21,63.09 68.11,91.88 40.71,24.99 71.07,52.13 71.83,102.76 0.41,27.83 -8.97,57.37 -26.83,84.47l-0.07 0.11c-0.71,1.08 -1.44,2.16 -2.18,3.23 -0.67,0.98 -1.36,1.95 -2.06,2.92l-0.4 0.55c-0.67,0.93 -1.36,1.86 -2.05,2.79l-0.4 0.53c-0.64,0.85 -1.29,1.7 -1.95,2.54l-0.32 0.41c-0.71,0.91 -1.44,1.82 -2.17,2.72l-0.48 0.59c-0.74,0.9 -1.48,1.8 -2.24,2.69l-0.39 0.45c-0.7,0.82 -1.41,1.64 -2.12,2.46l-0.36 0.41c-0.75,0.85 -1.51,1.7 -2.28,2.54l-0.68 0.74c-0.77,0.84 -1.55,1.68 -2.35,2.52l-0.35 0.37c-0.74,0.77 -1.48,1.54 -2.24,2.31l-0.54 0.55c-0.83,0.84 -1.68,1.68 -2.52,2.51l-0.49 0.48c-0.87,0.85 -1.75,1.69 -2.63,2.53l-0.28 0.26c-0.81,0.76 -1.63,1.52 -2.46,2.27l-0.57 0.52c-0.87,0.79 -1.75,1.56 -2.63,2.34l-0.66 0.57c-0.9,0.78 -1.81,1.56 -2.73,2.34l-0.05 0.04c-0.93,0.78 -1.86,1.55 -2.8,2.31l-0.74 0.6c-0.9,0.73 -1.81,1.45 -2.73,2.17l-0.62 0.48c-0.89,0.69 -1.78,1.37 -2.68,2.05l-0.32 0.25c-0.99,0.74 -1.99,1.48 -3,2.21l-0.59 0.42c-1.01,0.73 -2.03,1.45 -3.05,2.17l-0.35 0.24c-1.02,0.71 -2.06,1.42 -3.1,2.11l-0.22 0.15c-1.05,0.7 -2.1,1.39 -3.16,2.07l-0.67 0.43c-1.05,0.67 -2.1,1.33 -3.16,1.99l-0.3 0.18c-0.96,0.59 -1.92,1.17 -2.89,1.75 -0.27,0.16 -0.53,0.32 -0.8,0.48 -1.03,0.61 -2.07,1.21 -3.12,1.81l-0.63 0.36c-1.11,0.63 -2.23,1.25 -3.35,1.86l-0.14 0.07c-1.07,0.58 -2.16,1.16 -3.25,1.72l-0.69 0.36c-1.08,0.56 -2.16,1.11 -3.25,1.65l-0.76 0.37c-1.08,0.53 -2.17,1.06 -3.26,1.58l-0.16 0.08c-1.14,0.54 -2.3,1.07 -3.45,1.59l-0.73 0.33c-1.13,0.51 -2.26,1 -3.41,1.49l-0.65 0.27c-1.03,0.44 -2.06,0.86 -3.1,1.28l-0.63 0.26c-1.13,0.46 -2.27,0.9 -3.41,1.34l-0.84 0.32c-1.15,0.44 -2.3,0.86 -3.46,1.28l-0.58 0.2c-1.1,0.39 -2.2,0.78 -3.3,1.15l-0.55 0.19c-1.19,0.4 -2.38,0.78 -3.57,1.16l-0.8 0.25c-1.22,0.38 -2.44,0.75 -3.67,1.12l-0.22 0.06c-1.21,0.35 -2.42,0.69 -3.63,1.02l-0.62 0.17c-1.22,0.33 -2.44,0.65 -3.68,0.96l-0.73 0.18c-1.26,0.32 -2.53,0.62 -3.8,0.91l0 0 -0.37 0.08 -0 0 -0.37 0.08 0 0 -0.37 0.08 0 0 -0.37 0.08 0 0 -0.37 0.08 -0 0 -0.37 0.08 -0 0 -0.37 0.08 -0 0 -0.37 0.08 -0 0 -0.37 0.08 0 0 -0.37 0.08 0 0 -0.37 0.08 0 0 -0.37 0.08 0 0 -0.37 0.07 -0 0 -0.37 0.08 0 0 -0.37 0.07 0 0 -0.37 0.07 0 0 -0.37 0.07 0 0 -0.37 0.07 -0.36 0.07 -0.37 0.07 -0.37 0.07 -0.37 0.07 -0.37 0.07 -0.37 0.07 -0.37 0.07 -0.37 0.07 -0.37 0.06 -0.36 0.06 -0.37 0.06 -0.37 0.06 -0 0 -0.37 0.06 0 0 -0.36 0.06 -0 0 -0.37 0.06 0 0 -0.36 0.06 0 0 -0.36 0.06 -0 0 -0.36 0.06 0 0 -0.36 0.06 0 0 -0.36 0.06 0 0 -0.36 0.06 0 0 -0.36 0.06 -0 0 -0.36 0.05 -0 0 -0.36 0.05 -0 0 -0.36 0.05 0 0 -0.36 0.05 -0 0 -0.36 0.05 -0 0 -0.36 0.05 -0 0 -0.36 0.05 -0 0 -0.36 0.05 0 0 -0.36 0.05 0 0 -0.36 0.05 0 0 -0.36 0.05 0 0 -0.36 0.05 -0 0 -0.36 0.05 0 0 -0.36 0.05 0 0 -0.36 0.04 -0 0 -0.36 0.04 0 0 -0.36 0.04 -0 0 -0.36 0.04 -0 0 -0.36 0.04 0 0 -0.36 0.04 -0 0 -0.36 0.04 0 0 -0.36 0.04 0 0 -0.36 0.04 -0 0 -0.36 0.04 -0 0 -1.1 0.09 0 0 -1.1 0.08 -0 0 -1.09 0.08 0 0 -1.1 0.07 0 0 -1.1 0.07 0 0 -1.09 0.06 0 0c-0.37,0.02 -0.73,0.04 -1.09,0.05l-0 0 -1.09 0.05 0 0 -1.09 0.04 0 0 -1.09 0.04 0 0 -1.09 0.03 0 0 -1.08 0.03 0 0 -1.09 0.02 0 0 -1.08 0.01 -0 0 -1.08 0.01 -0 0 -1.08 0 0 -0 -1.08 -0.01 -0 0c-0.36,-0 -0.72,-0.01 -1.08,-0.01l0 0 -1.08 -0.02 0 0 -1.07 -0.02 0 0 -1.07 -0.03 0 -0 -1.07 -0.04 -0 0 -1.07 -0.04 -0 0c-0.36,-0.02 -0.71,-0.03 -1.07,-0.05l0 0 -1.07 -0.05 0 0 -1.06 -0.06 0 0 -1.06 -0.07 0 0 -1.06 -0.07 0 -0 -1.06 -0.08 -0 0 -1.05 -0.08 -0 0 -1.05 -0.09 -0 0c-0.35,-0.03 -0.7,-0.06 -1.05,-0.09l0 0 -1.05 -0.1 0 0 -1.05 -0.11 0 0 -1.04 -0.11 -0 0 -1.04 -0.12 -0 -0 -1.04 -0.12 -0 0 -1.03 -0.13 -0 -0 -1.03 -0.13 0 0 -1.03 -0.14 -0 0 -1.03 -0.15 -0 0 -1.02 -0.15 0 0 -1.02 -0.16 -0 0 -1.02 -0.16 -0 0 -1.02 -0.17 -0 0 -1.01 -0.18 -0 0 -1.01 -0.18 -0 0 -1.01 -0.19 -0 0 -1.01 -0.19 -1 -0.2 -1 -0.21 -1 -0.21 -0.99 -0.22 -0.99 -0.22 -0.99 -0.23 -0.98 -0.23 -0.98 -0.24 -0.98 -0.24 -0.97 -0.25 -0.97 -0.26 -0.97 -0.26 -0.96 -0.27 0 -0 -0.96 -0.27 -0 0 -0.96 -0.28 0 0 -0.19 -0.07c-0.55,-0.18 -1.1,-0.36 -1.65,-0.55l-0.66 -0.23c-0.43,-0.15 -0.86,-0.3 -1.28,-0.45l-0.63 -0.23c-0.59,-0.22 -1.18,-0.44 -1.77,-0.66l-0.41 -0.16c-0.45,-0.17 -0.9,-0.35 -1.35,-0.53l-0.76 -0.3c-0.37,-0.15 -0.74,-0.3 -1.11,-0.46l-0.7 -0.29c-0.56,-0.24 -1.12,-0.48 -1.67,-0.72l-0.46 -0.21c-0.44,-0.2 -0.89,-0.4 -1.33,-0.6l-0.57 -0.26c-0.44,-0.21 -0.88,-0.41 -1.32,-0.62l-0.46 -0.22c-0.54,-0.26 -1.08,-0.53 -1.62,-0.8l-0.59 -0.3c-0.38,-0.2 -0.77,-0.4 -1.15,-0.6l-0.6 -0.32c-0.5,-0.26 -0.99,-0.53 -1.48,-0.8l-0.14 -0.08 -0.01 -0.01 -0.07 -0.04c-0.51,-0.28 -1.02,-0.57 -1.53,-0.87l-0.58 -0.34c-0.36,-0.21 -0.72,-0.42 -1.08,-0.64l-0.59 -0.35c-0.46,-0.28 -0.92,-0.56 -1.38,-0.85 -0.22,-0.14 -0.43,-0.27 -0.65,-0.41 -0.34,-0.22 -0.68,-0.43 -1.02,-0.65l-0.73 -0.48 -0.68 -0.45c-0.29,-0.19 -0.57,-0.38 -0.85,-0.58l-0.02 -0.01c-0.42,-0.29 -0.84,-0.58 -1.26,-0.87l-0.03 -0.02 -0.61 -0.43c-0.31,-0.22 -0.62,-0.45 -0.94,-0.67l-0.66 -0.48c-0.29,-0.21 -0.57,-0.43 -0.86,-0.64l-0.58 -0.44c-0.43,-0.33 -0.87,-0.67 -1.29,-1.01l-0.65 -0.52c-0.29,-0.23 -0.57,-0.46 -0.85,-0.69l-0.57 -0.47c-0.33,-0.28 -0.66,-0.56 -0.99,-0.84l-0.59 -0.5c-0.36,-0.32 -0.72,-0.63 -1.08,-0.95l-0.49 -0.44c-0.29,-0.26 -0.58,-0.52 -0.86,-0.79 -0.2,-0.19 -0.41,-0.38 -0.61,-0.57 -0.31,-0.29 -0.62,-0.58 -0.93,-0.88 -0.25,-0.24 -0.5,-0.48 -0.75,-0.73 -0.24,-0.24 -0.48,-0.47 -0.72,-0.71 -0.21,-0.21 -0.41,-0.41 -0.61,-0.62 -0.22,-0.22 -0.44,-0.45 -0.66,-0.67 -0.22,-0.22 -0.43,-0.45 -0.65,-0.67 -0.34,-0.36 -0.68,-0.72 -1.02,-1.09 -0.23,-0.25 -0.46,-0.5 -0.69,-0.76l-0.5 -0.55c-0.21,-0.23 -0.41,-0.47 -0.62,-0.7l-0.54 -0.62c-0.81,-0.94 -1.6,-1.89 -2.37,-2.86l-0.22 -0.28c-0.26,-0.33 -0.52,-0.66 -0.78,-1l-0.22 -0.29c-0.46,-0.6 -0.9,-1.2 -1.35,-1.8l-0.31 -0.43c-0.2,-0.28 -0.4,-0.56 -0.6,-0.84l-0.45 -0.64c-0.17,-0.25 -0.35,-0.5 -0.52,-0.75 -0.15,-0.22 -0.3,-0.45 -0.45,-0.67 -0.34,-0.5 -0.67,-1.01 -1,-1.52l-0.37 -0.58c-0.18,-0.29 -0.36,-0.58 -0.54,-0.87l-0.35 -0.58c-0.18,-0.3 -0.37,-0.6 -0.55,-0.91l-0.24 -0.41c-0.37,-0.63 -0.73,-1.26 -1.09,-1.9l-0.25 -0.46c-0.2,-0.36 -0.4,-0.73 -0.6,-1.1l-0.18 -0.34c-0.19,-0.35 -0.38,-0.71 -0.56,-1.07 -0.23,-0.45 -0.46,-0.89 -0.68,-1.34l-0 -0.01c-0.16,-0.32 -0.32,-0.64 -0.47,-0.96l-0.33 -0.69c-0.14,-0.3 -0.28,-0.6 -0.43,-0.91l-0.31 -0.68c-0.24,-0.53 -0.47,-1.06 -0.71,-1.59l-0.32 -0.74c-0.13,-0.3 -0.25,-0.6 -0.37,-0.9l-0.33 -0.82c-0.12,-0.29 -0.23,-0.58 -0.34,-0.87 -0.19,-0.48 -0.38,-0.97 -0.56,-1.45 -4.13,-11.1 -6.43,-23.28 -6.62,-36.35 -0.24,-16.42 2.85,-32.93 8.75,-48.96 5.68,-13.96 13.72,-28.84 24.52,-44.68 3.98,-5.35 8.27,-10.56 12.84,-15.59z"/>
  <path class="fil1" d="M322.37 216.17c1.33,-2.42 2.6,-4.81 3.8,-7.17 19.18,-24.18 30.53,-52.32 30.12,-80.11 -0.32,-21.37 -7.56,-39.78 -19.87,-54.11 -0.27,-0.31 -0.53,-0.61 -0.8,-0.92 -0.22,-0.25 -0.44,-0.49 -0.66,-0.74 -0.44,-0.49 -0.89,-0.97 -1.35,-1.45 -0.24,-0.25 -0.47,-0.5 -0.71,-0.74 -0.3,-0.31 -0.6,-0.61 -0.91,-0.91 -0.22,-0.21 -0.43,-0.42 -0.65,-0.64 -0.36,-0.35 -0.73,-0.7 -1.1,-1.05 -0.38,-0.36 -0.76,-0.71 -1.14,-1.05 -0.28,-0.26 -0.56,-0.51 -0.85,-0.76 -0.29,-0.26 -0.58,-0.51 -0.88,-0.76 -0.38,-0.33 -0.76,-0.65 -1.15,-0.97 -0.37,-0.31 -0.75,-0.61 -1.12,-0.92 -0.33,-0.26 -0.66,-0.52 -0.99,-0.78 -0.27,-0.21 -0.54,-0.42 -0.81,-0.62 -0.3,-0.23 -0.6,-0.46 -0.91,-0.69 -0.51,-0.37 -1.02,-0.74 -1.53,-1.11 -0.33,-0.23 -0.67,-0.46 -1,-0.69 -0.31,-0.21 -0.61,-0.42 -0.92,-0.62 -0.32,-0.21 -0.63,-0.42 -0.95,-0.63 -0.54,-0.35 -1.08,-0.69 -1.63,-1.03 -0.33,-0.2 -0.66,-0.4 -0.99,-0.6 -0.34,-0.2 -0.68,-0.41 -1.02,-0.61 -0.32,-0.19 -0.65,-0.38 -0.97,-0.57 -0.56,-0.32 -1.14,-0.64 -1.71,-0.95 -0.33,-0.18 -0.67,-0.36 -1.01,-0.54 -0.37,-0.2 -0.74,-0.39 -1.11,-0.58 -0.33,-0.17 -0.65,-0.34 -0.98,-0.5 -0.6,-0.3 -1.21,-0.59 -1.82,-0.89 -0.33,-0.16 -0.66,-0.31 -0.99,-0.46 -0.4,-0.18 -0.8,-0.37 -1.21,-0.55 -0.32,-0.14 -0.64,-0.29 -0.96,-0.43 -0.65,-0.28 -1.3,-0.56 -1.95,-0.82 -0.3,-0.12 -0.61,-0.24 -0.92,-0.36 -0.47,-0.19 -0.93,-0.37 -1.4,-0.55 -0.3,-0.12 -0.61,-0.23 -0.91,-0.34 -0.68,-0.25 -1.36,-0.5 -2.05,-0.74 -0.31,-0.11 -0.62,-0.21 -0.93,-0.31 -0.48,-0.16 -0.97,-0.32 -1.46,-0.48 -0.32,-0.1 -0.65,-0.21 -0.97,-0.31 -0.7,-0.22 -1.4,-0.43 -2.11,-0.63 -0.29,-0.09 -0.6,-0.17 -0.89,-0.25 -0.54,-0.15 -1.08,-0.3 -1.63,-0.45 -0.3,-0.08 -0.59,-0.16 -0.89,-0.23 -0.75,-0.19 -1.5,-0.38 -2.26,-0.56 -0.27,-0.06 -0.53,-0.12 -0.8,-0.18 -0.59,-0.13 -1.18,-0.26 -1.78,-0.39 -0.28,-0.06 -0.57,-0.12 -0.85,-0.18 -0.79,-0.16 -1.58,-0.32 -2.38,-0.46 -0.26,-0.05 -0.52,-0.09 -0.77,-0.14 -0.62,-0.11 -1.24,-0.21 -1.86,-0.31 -0.29,-0.05 -0.58,-0.09 -0.88,-0.14 -0.82,-0.13 -1.64,-0.24 -2.46,-0.35 -0.25,-0.03 -0.49,-0.06 -0.74,-0.09 -0.64,-0.08 -1.27,-0.16 -1.91,-0.23 -0.31,-0.03 -0.61,-0.07 -0.92,-0.1 -0.83,-0.09 -1.67,-0.17 -2.51,-0.24l-0.69 -0.05c-0.71,-0.06 -1.43,-0.11 -2.15,-0.15l-0.74 -0.05c-0.9,-0.05 -1.81,-0.1 -2.72,-0.13l-0.43 -0.01c-0.8,-0.03 -1.6,-0.05 -2.41,-0.06l-0.74 -0.01c-0.92,-0.01 -1.84,-0.02 -2.76,-0.01l-0.48 0.01c-0.8,0.01 -1.6,0.03 -2.4,0.05l-0.85 0.03c-0.92,0.03 -1.84,0.07 -2.77,0.12l-0.44 0.03c-0.83,0.05 -1.66,0.1 -2.5,0.16l-0.79 0.06c-0.95,0.07 -1.91,0.16 -2.86,0.25l-0.37 0.04c-0.88,0.09 -1.76,0.18 -2.65,0.29l-0.76 0.09c-0.97,0.12 -1.95,0.25 -2.92,0.38l-0.34 0.05c-0.9,0.13 -1.8,0.27 -2.71,0.41l-0.75 0.12c-0.99,0.16 -1.97,0.33 -2.97,0.52l-0.29 0.05c-0.94,0.18 -1.88,0.36 -2.82,0.55l-0.77 0.16c-1.02,0.21 -2.04,0.43 -3.07,0.67l-0.35 0.08 -0.62 0.14 -0.04 0.01 -0.75 0.18 -0.48 0.12 -0.13 0.03 -0.56 0.14 -0.03 0.01 -0.54 0.13 -0.87 0.22 -0.46 0.12 -0.03 0.01 -0.64 0.17 -0.09 0.03 -0.44 0.12 -0.67 0.18 -0.14 0.04 -0.61 0.16 -0.38 0.1c-0.6,0.17 -1.2,0.34 -1.79,0.51l-0.21 0.06 -0.6 0.18 -0.3 0.09 -0.56 0.17 -0.43 0.13c-0.53,0.16 -1.06,0.32 -1.59,0.49l-0.54 0.17 -0.31 0.1 -0.63 0.2 -0.02 0 -0.73 0.24 -0.03 0.01 -0.77 0.25 -0.01 0 -0.06 0.02 -0.85 0.29 -0.12 0.04c-0.51,0.17 -1.01,0.35 -1.51,0.52l-0.49 0.17 -0.73 0.26 -0.03 0.01 -0.76 0.27 -0.45 0.16 -0.46 0.17c-0.45,0.17 -0.9,0.34 -1.35,0.5l-0.68 0.26 -0.07 0.03 -0.04 0.01c-0.54,0.21 -1.08,0.42 -1.62,0.63l-0.12 0.05 -0.46 0.18 -0.01 0c-12.76,5.09 -24.81,11.76 -35.37,19.84 -32.6,24.96 -51.7,65.81 -39.51,94.58 9.29,21.91 27.81,44.42 53.99,60.95 35.82,22.62 68.06,49.96 57.85,87.81 -6.59,24.43 -26.11,45.53 -51.85,59.38 31.02,-36.74 -21.21,-63.1 -68.1,-91.88 -40.71,-24.99 -71.08,-52.12 -71.83,-102.76 -0.42,-27.83 8.97,-57.37 26.83,-84.47l0.07 -0.11c0.71,-1.08 1.44,-2.16 2.18,-3.23 0.67,-0.98 1.36,-1.95 2.06,-2.92l0.4 -0.55c0.67,-0.93 1.36,-1.86 2.05,-2.79l0.4 -0.53c0.64,-0.85 1.29,-1.7 1.95,-2.54l0.31 -0.41c0.71,-0.91 1.44,-1.82 2.17,-2.72l0.48 -0.59c0.74,-0.9 1.48,-1.8 2.23,-2.7l0.39 -0.45c0.7,-0.82 1.41,-1.64 2.12,-2.46l0.36 -0.41c0.75,-0.85 1.51,-1.7 2.28,-2.54l0.68 -0.74c0.77,-0.84 1.55,-1.68 2.34,-2.52l0.36 -0.37c0.74,-0.77 1.48,-1.54 2.24,-2.31l0.54 -0.55c0.83,-0.84 1.68,-1.68 2.52,-2.51l0.49 -0.48c0.87,-0.85 1.75,-1.69 2.63,-2.53l0.28 -0.26c0.81,-0.76 1.63,-1.52 2.46,-2.27l0.57 -0.52c0.87,-0.79 1.75,-1.56 2.63,-2.34l0.66 -0.57c0.9,-0.79 1.81,-1.56 2.73,-2.34l0.05 -0.04c0.92,-0.78 1.86,-1.55 2.8,-2.31l0.74 -0.6c0.9,-0.73 1.81,-1.45 2.73,-2.17l0.62 -0.48c0.89,-0.69 1.78,-1.37 2.68,-2.05l0.32 -0.25c0.99,-0.74 1.99,-1.48 2.99,-2.21l0.59 -0.42c1.01,-0.73 2.03,-1.45 3.05,-2.17l0.35 -0.24c1.03,-0.71 2.06,-1.42 3.1,-2.11l0.22 -0.15c1.05,-0.7 2.1,-1.39 3.16,-2.07l0.67 -0.43c1.05,-0.67 2.1,-1.33 3.16,-1.99l0.3 -0.18c0.96,-0.59 1.92,-1.17 2.89,-1.74 0.27,-0.16 0.53,-0.32 0.8,-0.48 1.03,-0.61 2.08,-1.21 3.12,-1.81l0.63 -0.36c1.11,-0.63 2.23,-1.25 3.35,-1.86l0.15 -0.08c1.07,-0.58 2.16,-1.16 3.24,-1.72l0.69 -0.36c1.08,-0.56 2.16,-1.11 3.25,-1.65l0.76 -0.37c1.08,-0.53 2.17,-1.06 3.26,-1.58l0.16 -0.08c1.14,-0.54 2.3,-1.07 3.45,-1.59l0.73 -0.33c1.13,-0.51 2.27,-1 3.41,-1.49l0.65 -0.27c1.03,-0.44 2.06,-0.86 3.1,-1.28l0.63 -0.26c1.13,-0.46 2.27,-0.9 3.41,-1.34l0.84 -0.32c1.15,-0.44 2.3,-0.86 3.46,-1.28l0.58 -0.2c1.1,-0.39 2.2,-0.77 3.3,-1.15l0.55 -0.19c1.19,-0.4 2.38,-0.78 3.57,-1.16l0.8 -0.25c1.22,-0.38 2.44,-0.76 3.67,-1.12l0.22 -0.06c1.21,-0.35 2.42,-0.69 3.63,-1.02l0.62 -0.17c1.22,-0.33 2.45,-0.65 3.68,-0.96l0.73 -0.18c1.26,-0.32 2.53,-0.62 3.8,-0.91l0 0 0.37 -0.08 0 0 0.37 -0.08 0 0 0.37 -0.08 0 0 0.37 -0.08 0 0 0.37 -0.08 0 -0 0.37 -0.08 0 0 0.37 -0.08 0 0 0.37 -0.08 0 0 0.37 -0.08 0 0 0.37 -0.08 0 -0 0.37 -0.08 0 0 0.37 -0.08 0 0 0.37 -0.07 0 0 0.37 -0.07 0 0 0.37 -0.08 0 0 0.37 -0.07 0 0 0.37 -0.07 0 0 0.37 -0.07 0.37 -0.07 0.37 -0.07 0.37 -0.07 0.37 -0.07 0.37 -0.07 0.36 -0.07 0.37 -0.07 0.37 -0.07 0.36 -0.06 0.37 -0.07 0.37 -0.06 0.36 -0.06 0 0 0.36 -0.06 0 0 0.36 -0.06 0 0 0.37 -0.06 0 0 0.37 -0.06 0 0 0.36 -0.06 0 0 0.36 -0.06 0 0 0.36 -0.06 0 0 0.36 -0.06 0 0 0.36 -0.06 0 0 0.36 -0.06 0 0 0.36 -0.05 0 0 0.36 -0.05 0 0 0.36 -0.05 0 0 0.36 -0.05 0 0 0.36 -0.05 0 0 0.36 -0.05 0 0 0.36 -0.05 0 0 0.36 -0.05 0 0 0.36 -0.05 0 0 0.36 -0.05 0 0 0.36 -0.05 0 0 0.36 -0.05 0 0 0.36 -0.05 0 0 0.36 -0.05 0 0 0.36 -0.04 0 0 0.36 -0.04 0 0 0.36 -0.04 0 0 0.36 -0.04 0 0 0.36 -0.04 0 0 0.36 -0.04 0 0 0.35 -0.04 0 0 0.36 -0.04 0 -0 0.36 -0.04 0 0 0.36 -0.04 0 0 1.1 -0.09 0 -0 1.1 -0.08 0 0 1.1 -0.08 0 0 1.09 -0.07 0 0 1.09 -0.06 0 0 1.09 -0.06 0 0c0.36,-0.02 0.73,-0.04 1.09,-0.05l0 0 1.09 -0.05 0 0 1.09 -0.04 0 0 1.09 -0.04 0 0 1.09 -0.03 0 0 1.09 -0.03 0 0 1.08 -0.02 0 0 1.08 -0.01 0 0 1.08 -0 0 -0 1.08 0 0 0 1.08 0.01 0 0c0.36,0 0.72,0.01 1.08,0.01l0 0 1.07 0.02 0 0 1.07 0.02 0 0 1.07 0.03 0 0 1.07 0.03 0 0 1.07 0.04 0 0c0.36,0.02 0.71,0.03 1.07,0.05l0 0 1.06 0.05 0 0 1.06 0.06 0 0 1.06 0.06 0 0 1.06 0.07 0 0 1.05 0.08 0 0 1.05 0.08 0 0 1.05 0.09 0 0c0.35,0.03 0.7,0.06 1.05,0.09l0 0 1.05 0.1 0 0 1.05 0.11 0 0 1.04 0.11 0 0 1.04 0.12 0 0 1.04 0.12 0 0 1.04 0.13 0 0 1.03 0.13 0 0 1.03 0.14 0 0 1.03 0.15 0 0 1.03 0.15 0 0 1.02 0.16 0 0 1.02 0.16 0 0 1.02 0.17 0 0 1.01 0.17 0 0 1.01 0.18 0 0 1.01 0.19 0 0 1.01 0.19 1 0.2 1 0.2 1 0.21 1 0.22 0.99 0.22 0.99 0.23 0.98 0.23 0.98 0.24 0.98 0.24 0.98 0.25 0.97 0.26 0.97 0.26 0.96 0.27 0 0 0.96 0.27 0 0 0.96 0.28 0 0 0.19 0.06c0.55,0.18 1.1,0.36 1.64,0.55l0.66 0.23c0.43,0.15 0.85,0.3 1.28,0.46l0.63 0.23c0.59,0.22 1.19,0.44 1.77,0.66l0.41 0.16c0.45,0.17 0.9,0.35 1.35,0.53l0.76 0.3c0.37,0.15 0.74,0.3 1.11,0.46l0.7 0.29c0.56,0.24 1.12,0.48 1.67,0.72l0.47 0.21c0.45,0.2 0.89,0.4 1.33,0.6l0.57 0.26c0.44,0.21 0.88,0.41 1.32,0.63l0.46 0.22c0.54,0.26 1.08,0.53 1.62,0.8l0.59 0.3c0.38,0.2 0.77,0.4 1.15,0.6l0.6 0.32c0.5,0.26 0.99,0.53 1.48,0.8l0.14 0.08 0.01 0.01 0.06 0.04c0.51,0.29 1.02,0.57 1.54,0.87l0.58 0.34c0.36,0.21 0.72,0.42 1.08,0.64l0.59 0.35c0.46,0.28 0.93,0.56 1.38,0.85 0.22,0.14 0.43,0.27 0.65,0.41 0.34,0.22 0.68,0.43 1.02,0.65l0.73 0.48 0.68 0.45c0.28,0.19 0.57,0.38 0.86,0.58l0.02 0.01c0.42,0.29 0.84,0.58 1.26,0.87l0.03 0.02 0.61 0.43c0.31,0.22 0.62,0.45 0.93,0.67l0.66 0.48c0.29,0.21 0.57,0.43 0.85,0.64l0.58 0.44c0.43,0.33 0.87,0.67 1.29,1.01l0.65 0.52c0.29,0.23 0.57,0.46 0.85,0.69l0.57 0.47c0.33,0.28 0.66,0.56 0.99,0.84l0.59 0.5c0.36,0.31 0.72,0.63 1.08,0.95l0.49 0.44c0.29,0.26 0.58,0.52 0.86,0.79 0.2,0.19 0.41,0.38 0.61,0.57 0.31,0.29 0.62,0.58 0.93,0.88 0.25,0.24 0.5,0.48 0.75,0.73 0.24,0.24 0.48,0.47 0.72,0.71 0.2,0.2 0.41,0.41 0.61,0.62 0.22,0.22 0.44,0.45 0.66,0.68 0.22,0.22 0.43,0.45 0.65,0.67 0.34,0.36 0.68,0.72 1.02,1.09 0.23,0.25 0.46,0.51 0.69,0.76l0.5 0.55c0.21,0.23 0.41,0.47 0.62,0.7l0.54 0.62c0.81,0.94 1.6,1.89 2.37,2.86l0.22 0.28c0.26,0.33 0.52,0.66 0.78,1l0.22 0.29c0.46,0.59 0.9,1.2 1.35,1.8l0.31 0.43c0.2,0.28 0.4,0.56 0.6,0.84l0.45 0.64c0.17,0.25 0.35,0.5 0.52,0.75 0.15,0.22 0.3,0.45 0.45,0.67 0.34,0.5 0.67,1.01 1,1.52l0.37 0.58c0.18,0.29 0.36,0.58 0.54,0.87l0.35 0.58c0.18,0.3 0.37,0.6 0.55,0.9l0.24 0.41c0.37,0.63 0.73,1.26 1.09,1.9l0.26 0.46c0.2,0.36 0.4,0.73 0.6,1.1l0.18 0.34c0.19,0.35 0.38,0.71 0.56,1.07 0.23,0.45 0.45,0.89 0.68,1.34l0 0c0.16,0.32 0.32,0.64 0.47,0.96l0.33 0.69c0.14,0.3 0.29,0.61 0.43,0.91l0.31 0.68c0.24,0.53 0.48,1.06 0.7,1.59l0.32 0.74c0.12,0.3 0.25,0.6 0.37,0.9l0.33 0.82c0.11,0.29 0.23,0.58 0.34,0.87 0.19,0.48 0.37,0.97 0.55,1.45 4.13,11.1 6.43,23.28 6.62,36.36 0.25,16.42 -2.85,32.93 -8.75,48.96 -5.68,13.96 -13.72,28.84 -24.52,44.68 -3.98,5.35 -8.27,10.56 -12.84,15.59z"/>
 </g>
</svg>
